<?xml version="1.0" encoding="utf-8" ?>
<svg baseProfile="full" height="2048px" version="1.1" viewBox="0 0 2048 2048" width="2048px" xmlns="http://www.w3.org/2000/svg" xmlns:ev="http://www.w3.org/2001/xml-events" xmlns:xlink="http://www.w3.org/1999/xlink"><defs /><path d="M 1598,1318 C 1596,1319 1593,1319 1590,1319 C 1588,1319 1585,1319 1582,1319 C 1580,1319 1577,1320 1574,1320 C 1572,1320 1569,1320 1566,1320 C 1564,1321 1561,1322 1558,1322 C 1556,1323 1553,1323 1550,1324 C 1548,1324 1545,1325 1542,1326 C 1540,1326 1537,1327 1534,1328 C 1532,1329 1529,1330 1526,1331 C 1524,1331 1521,1332 1518,1333 C 1516,1334 1513,1335 1510,1336 C 1508,1337 1505,1338 1502,1339 C 1500,1340 1497,1341 1494,1342 C 1492,1343 1489,1345 1486,1346 C 1484,1347 1481,1348 1478,1350 C 1476,1351 1473,1353 1470,1354 C 1468,1355 1465,1357 1462,1359 C 1460,1360 1457,1361 1454,1364 C 1452,1365 1449,1367 1446,1369 C 1444,1370 1441,1372 1438,1374 C 1436,1375 1434,1377 1431,1379 C 1429,1381 1426,1384 1423,1386 C 1421,1388 1418,1390 1415,1393 C 1413,1394 1410,1397 1407,1400 C 1405,1402 1402,1405 1400,1407 C 1398,1409 1395,1412 1392,1415 C 1390,1417 1387,1420 1384,1423 C 1382,1425 1380,1428 1377,1431 C 1375,1433 1373,1436 1370,1439 C 1369,1441 1366,1444 1364,1447 C 1363,1449 1361,1452 1359,1455 C 1357,1457 1355,1460 1353,1463 C 1352,1465 1350,1468 1349,1471 C 1348,1473 1346,1476 1344,1479 C 1343,1481 1342,1484 1340,1487 C 1339,1489 1338,1492 1337,1495 C 1336,1497 1334,1500 1333,1503 C 1332,1505 1331,1508 1330,1511 C 1329,1513 1328,1516 1326,1519 C 1326,1521 1324,1524 1323,1527 C 1323,1529 1322,1532 1321,1535 C 1321,1537 1320,1540 1319,1543 C 1318,1545 1317,1548 1317,1551 C 1316,1553 1316,1556 1315,1559 C 1314,1561 1314,1564 1313,1567 C 1313,1569 1312,1572 1312,1575 C 1311,1577 1311,1580 1311,1583 C 1310,1585 1310,1588 1309,1591 C 1309,1593 1309,1596 1309,1599 C 1309,1601 1308,1604 1308,1607 C 1308,1609 1308,1612 1308,1615 C 1308,1617 1308,1620 1308,1623 C 1308,1625 1308,1628 1308,1631 C 1308,1633 1308,1636 1308,1639 C 1308,1641 1309,1644 1309,1647 C 1309,1649 1309,1652 1309,1655 C 1309,1657 1309,1660 1309,1663 C 1310,1664 1311,1667 1311,1670 C 1311,1672 1312,1675 1312,1678 C 1313,1680 1313,1683 1313,1686 C 1314,1688 1315,1691 1315,1694 C 1316,1696 1317,1699 1318,1702 C 1318,1704 1319,1707 1320,1710 C 1320,1712 1321,1715 1323,1718 C 1323,1720 1324,1723 1325,1726 C 1326,1728 1327,1731 1328,1734 C 1329,1736 1331,1739 1332,1742 C 1333,1744 1333,1747 1335,1750 C 1336,1752 1337,1755 1339,1758 C 1340,1760 1341,1763 1343,1766 C 1344,1768 1346,1771 1347,1774 C 1348,1776 1350,1779 1352,1782 C 1353,1784 1354,1787 1357,1790 C 1358,1792 1359,1795 1361,1798 C 1362,1800 1365,1803 1366,1806 C 1368,1808 1370,1811 1373,1814 C 1374,1816 1377,1819 1379,1822 C 1381,1824 1384,1827 1387,1830 C 1389,1832 1391,1835 1394,1838 C 1396,1840 1399,1843 1402,1845 C 1403,1847 1406,1849 1409,1852 C 1411,1854 1414,1857 1417,1859 C 1419,1861 1422,1863 1425,1865 C 1427,1867 1430,1869 1433,1872 C 1435,1873 1438,1875 1441,1877 C 1443,1879 1446,1881 1449,1883 C 1451,1884 1454,1886 1457,1888 C 1459,1889 1462,1891 1465,1892 C 1467,1893 1470,1895 1473,1896 C 1475,1898 1478,1899 1481,1901 C 1483,1902 1486,1903 1489,1904 C 1491,1905 1494,1907 1497,1908 C 1499,1909 1502,1910 1505,1911 C 1507,1912 1510,1913 1513,1914 C 1515,1915 1518,1916 1521,1917 C 1523,1917 1526,1918 1529,1919 C 1531,1920 1534,1920 1537,1921 C 1539,1922 1542,1922 1545,1923 C 1547,1924 1550,1924 1553,1925 C 1555,1925 1558,1926 1561,1926 C 1563,1927 1566,1927 1569,1928 C 1571,1928 1574,1928 1577,1928 C 1579,1929 1582,1929 1585,1929 C 1587,1929 1590,1929 1593,1930 C 1595,1930 1598,1930 1601,1930 C 1603,1930 1606,1930 1609,1930 C 1611,1930 1614,1930 1617,1930 C 1619,1930 1622,1930 1625,1930 C 1627,1930 1630,1930 1633,1930 C 1635,1930 1638,1929 1641,1929 C 1643,1929 1646,1928 1649,1928 C 1651,1928 1654,1928 1657,1927 C 1659,1927 1662,1926 1665,1926 C 1667,1925 1670,1925 1673,1924 C 1675,1924 1678,1923 1681,1922 C 1683,1922 1686,1921 1689,1920 C 1691,1919 1694,1918 1697,1917 C 1699,1917 1702,1916 1705,1915 C 1707,1914 1710,1913 1713,1912 C 1715,1911 1718,1910 1721,1909 C 1723,1908 1726,1907 1729,1905 C 1731,1905 1734,1903 1737,1902 C 1739,1901 1742,1899 1745,1898 C 1747,1897 1750,1895 1753,1894 C 1755,1893 1758,1891 1761,1889 C 1763,1888 1766,1886 1769,1884 C 1771,1883 1774,1881 1777,1880 C 1779,1878 1782,1876 1785,1874 C 1787,1873 1790,1870 1793,1868 C 1795,1867 1798,1864 1801,1862 C 1803,1861 1806,1858 1809,1855 C 1811,1853 1814,1850 1817,1848 C 1819,1846 1822,1843 1825,1840 C 1827,1838 1829,1835 1832,1832 C 1834,1830 1837,1827 1839,1824 C 1841,1822 1843,1819 1846,1816 C 1847,1814 1850,1811 1852,1808 C 1854,1806 1856,1803 1858,1800 C 1859,1798 1861,1795 1863,1792 C 1865,1790 1867,1787 1868,1784 C 1869,1782 1871,1779 1873,1776 C 1874,1774 1876,1771 1877,1768 C 1878,1766 1880,1763 1881,1760 C 1882,1758 1883,1755 1885,1752 C 1886,1750 1887,1747 1888,1744 C 1889,1742 1890,1739 1891,1736 C 1892,1734 1893,1731 1895,1728 C 1895,1726 1897,1723 1898,1720 C 1898,1718 1899,1715 1900,1712 C 1901,1710 1902,1707 1903,1704 C 1904,1702 1904,1699 1905,1696 C 1906,1694 1906,1691 1907,1688 C 1907,1686 1908,1683 1909,1680 C 1909,1678 1909,1675 1910,1672 C 1910,1670 1911,1667 1911,1664 C 1911,1662 1912,1659 1912,1656 C 1912,1654 1912,1651 1913,1648 C 1913,1646 1913,1643 1913,1640 C 1913,1638 1913,1635 1913,1632 C 1913,1630 1913,1627 1913,1624 C 1913,1622 1913,1619 1913,1616 C 1913,1614 1913,1611 1913,1608 C 1913,1606 1912,1603 1912,1600 C 1912,1598 1912,1595 1911,1592 C 1911,1590 1911,1587 1911,1584 C 1910,1582 1910,1579 1909,1576 C 1909,1574 1909,1571 1908,1568 C 1908,1566 1907,1563 1907,1560 C 1906,1558 1906,1555 1905,1552 C 1904,1550 1904,1547 1903,1544 C 1902,1542 1902,1539 1901,1536 C 1900,1534 1899,1531 1898,1528 C 1898,1526 1897,1523 1896,1520 C 1895,1518 1894,1515 1893,1512 C 1892,1510 1891,1507 1890,1504 C 1889,1502 1888,1499 1886,1496 C 1885,1494 1884,1491 1883,1488 C 1882,1486 1881,1483 1879,1480 C 1878,1478 1877,1475 1876,1472 C 1875,1470 1873,1467 1871,1464 C 1870,1462 1868,1459 1866,1456 C 1865,1454 1863,1451 1861,1448 C 1860,1446 1858,1443 1856,1440 C 1854,1438 1852,1435 1850,1432 C 1848,1430 1846,1427 1843,1424 C 1842,1422 1839,1419 1836,1416 C 1835,1414 1833,1412 1830,1410 C 1829,1408 1826,1405 1823,1402 C 1821,1401 1818,1398 1815,1395 C 1813,1393 1810,1391 1807,1389 C 1805,1387 1802,1384 1799,1382 C 1797,1381 1794,1378 1791,1376 C 1789,1375 1786,1373 1783,1371 C 1781,1369 1778,1367 1775,1366 C 1773,1364 1770,1363 1767,1361 C 1765,1360 1762,1359 1759,1357 C 1757,1356 1754,1355 1751,1353 C 1749,1352 1746,1351 1743,1349 C 1741,1348 1738,1347 1735,1345 C 1733,1344 1730,1343 1727,1341 C 1725,1340 1722,1339 1719,1338 C 1717,1337 1714,1336 1711,1335 C 1709,1334 1706,1333 1703,1332 C 1701,1331 1698,1330 1695,1329 C 1693,1329 1690,1327 1687,1326 C 1685,1326 1682,1325 1679,1324 C 1677,1324 1674,1323 1671,1323 C 1669,1322 1666,1322 1663,1322 C 1661,1321 1658,1321 1655,1320 C 1653,1320 1650,1320 1647,1319 C 1645,1319 1642,1319 1639,1319 C 1637,1319 1634,1319 1631,1318 C 1629,1318 1626,1318 1623,1318 C 1621,1318 1618,1318 1615,1318 C 1613,1318 1610,1318 1607,1318 C 1605,1318 1602,1318 1599,1318 Z M 941,376 C 943,375 946,375 949,376 C 951,376 954,376 957,376 C 959,376 962,377 965,377 C 967,378 970,378 973,379 C 975,380 978,381 981,383 C 983,384 986,385 989,386 C 991,386 994,388 997,389 C 999,391 1002,392 1005,394 C 1007,395 1010,397 1013,400 C 1015,402 1018,404 1021,407 C 1023,409 1025,412 1028,415 C 1030,417 1031,420 1034,423 C 1035,425 1037,428 1038,431 C 1040,433 1041,436 1043,439 C 1044,441 1045,444 1046,447 C 1048,449 1049,452 1050,455 C 1051,457 1052,460 1054,463 C 1055,465 1056,468 1058,471 C 1058,473 1060,476 1061,479 C 1062,481 1063,484 1065,487 C 1066,489 1067,492 1068,495 C 1069,497 1070,500 1072,503 C 1073,505 1074,508 1076,511 C 1077,513 1078,516 1079,519 C 1080,521 1081,524 1083,527 C 1084,529 1085,532 1087,535 C 1088,537 1089,540 1090,543 C 1091,545 1092,548 1094,551 C 1095,553 1096,556 1097,559 C 1098,561 1100,564 1101,567 C 1102,569 1103,572 1104,575 C 1105,577 1107,580 1108,583 C 1109,585 1110,588 1112,591 C 1113,593 1114,596 1115,599 C 1116,601 1117,604 1119,607 C 1120,609 1121,612 1122,615 C 1123,617 1124,620 1126,623 C 1127,625 1128,628 1129,631 C 1130,633 1131,636 1133,639 C 1134,641 1135,644 1136,647 C 1137,649 1139,652 1140,655 C 1141,657 1142,660 1144,663 C 1145,665 1146,668 1148,671 C 1149,673 1150,676 1151,679 C 1152,681 1153,684 1155,687 C 1156,689 1157,692 1158,695 C 1159,697 1160,700 1162,703 C 1163,705 1164,708 1165,711 C 1166,713 1168,716 1169,719 C 1170,721 1171,724 1173,727 C 1173,729 1175,732 1176,735 C 1177,737 1178,740 1180,743 C 1180,745 1182,748 1183,751 C 1184,753 1185,756 1187,759 C 1188,761 1189,764 1190,767 C 1191,769 1193,772 1194,775 C 1195,777 1196,780 1198,783 C 1198,785 1200,788 1201,791 C 1202,793 1203,796 1205,799 C 1206,801 1207,804 1208,807 C 1209,809 1210,812 1212,815 C 1212,817 1214,820 1215,823 C 1216,825 1217,828 1218,831 C 1219,833 1221,836 1222,839 C 1223,841 1224,844 1226,847 C 1227,849 1228,852 1229,855 C 1230,857 1232,860 1233,863 C 1234,865 1235,868 1236,871 C 1237,873 1238,876 1240,879 C 1241,881 1242,884 1243,887 C 1244,889 1246,892 1247,895 C 1248,897 1249,900 1250,903 C 1251,905 1253,908 1254,911 C 1255,913 1256,916 1257,919 C 1258,921 1259,924 1261,927 C 1262,929 1263,932 1264,935 C 1265,937 1266,940 1268,943 C 1269,945 1270,948 1271,951 C 1272,953 1274,956 1275,959 C 1276,961 1277,964 1278,967 C 1279,969 1280,972 1282,975 C 1283,977 1284,980 1286,983 C 1286,985 1288,988 1289,991 C 1290,993 1291,996 1293,999 C 1293,1001 1295,1004 1296,1007 C 1297,1009 1298,1012 1300,1015 C 1301,1017 1302,1020 1303,1023 C 1304,1025 1305,1028 1307,1031 C 1307,1033 1309,1036 1309,1039 C 1311,1040 1312,1043 1313,1046 C 1314,1048 1316,1051 1317,1054 C 1318,1056 1319,1059 1320,1062 C 1321,1064 1322,1067 1323,1070 C 1324,1072 1325,1075 1327,1078 C 1328,1080 1329,1083 1330,1086 C 1330,1088 1329,1091 1326,1093 C 1324,1095 1321,1097 1318,1100 C 1316,1101 1313,1104 1310,1106 C 1308,1108 1305,1110 1302,1112 C 1300,1114 1297,1116 1294,1119 C 1292,1121 1289,1123 1286,1126 C 1284,1128 1281,1130 1278,1132 C 1276,1133 1273,1136 1270,1139 C 1268,1140 1265,1142 1262,1145 C 1260,1146 1257,1149 1254,1152 C 1252,1154 1249,1156 1246,1159 C 1244,1161 1241,1163 1238,1165 C 1237,1167 1234,1169 1231,1172 C 1229,1173 1226,1176 1223,1178 C 1221,1180 1218,1182 1215,1185 C 1213,1186 1210,1189 1207,1191 C 1205,1193 1202,1195 1199,1197 C 1197,1199 1194,1201 1191,1204 C 1189,1205 1186,1208 1183,1210 C 1181,1212 1178,1214 1175,1216 C 1173,1218 1170,1221 1167,1223 C 1165,1225 1162,1227 1159,1230 C 1157,1232 1154,1234 1151,1237 C 1149,1238 1146,1241 1143,1243 C 1141,1245 1138,1248 1135,1250 C 1133,1252 1130,1254 1127,1257 C 1125,1258 1122,1261 1119,1263 C 1117,1265 1114,1267 1111,1269 C 1109,1271 1106,1273 1103,1276 C 1101,1277 1098,1280 1095,1283 C 1093,1285 1090,1287 1087,1290 C 1085,1291 1082,1293 1079,1296 C 1077,1297 1074,1300 1071,1302 C 1069,1304 1067,1306 1064,1308 C 1062,1309 1059,1312 1056,1314 C 1054,1316 1051,1318 1048,1321 C 1046,1322 1043,1325 1040,1328 C 1038,1329 1035,1332 1032,1334 C 1030,1336 1027,1338 1024,1341 C 1022,1342 1019,1344 1016,1347 C 1014,1348 1011,1351 1008,1353 C 1006,1355 1003,1357 1000,1360 C 998,1362 995,1364 992,1367 C 990,1368 987,1371 984,1373 C 982,1375 979,1377 976,1380 C 974,1382 971,1384 968,1387 C 966,1389 963,1391 960,1394 C 958,1396 955,1398 952,1401 C 950,1402 947,1405 944,1408 C 942,1410 939,1412 937,1414 C 935,1415 932,1418 929,1420 C 927,1422 924,1424 922,1426 C 920,1428 917,1431 914,1433 C 912,1435 909,1437 906,1440 C 904,1441 901,1444 898,1446 C 896,1448 893,1450 890,1453 C 888,1455 885,1457 882,1460 C 880,1461 877,1464 874,1467 C 872,1468 869,1471 866,1473 C 864,1475 861,1478 858,1480 C 856,1482 853,1484 850,1487 C 848,1489 845,1491 842,1494 C 840,1496 837,1498 834,1500 C 832,1502 829,1504 827,1507 C 825,1508 822,1511 819,1513 C 817,1515 814,1517 811,1520 C 809,1522 806,1524 803,1527 C 801,1528 798,1531 795,1533 C 793,1535 790,1538 787,1541 C 785,1542 783,1544 780,1546 C 778,1548 775,1550 772,1553 C 770,1554 767,1557 764,1559 C 762,1560 759,1562 756,1564 C 755,1566 752,1567 749,1570 C 747,1571 744,1573 741,1575 C 739,1576 736,1579 733,1580 C 731,1582 728,1584 725,1586 C 723,1587 720,1589 717,1591 C 715,1592 712,1594 709,1596 C 707,1597 704,1599 701,1600 C 699,1601 696,1603 693,1604 C 691,1605 688,1607 685,1608 C 683,1608 680,1609 677,1610 C 675,1611 672,1612 669,1613 C 667,1613 664,1614 661,1615 C 659,1615 656,1616 653,1616 C 651,1617 648,1617 645,1618 C 643,1618 640,1618 637,1619 C 635,1619 632,1619 629,1619 C 627,1619 624,1619 621,1619 C 619,1619 616,1619 613,1619 C 611,1619 608,1619 605,1619 C 603,1619 600,1619 597,1619 C 595,1618 592,1618 589,1618 C 587,1618 584,1617 581,1617 C 579,1616 576,1616 573,1615 C 571,1615 568,1614 565,1613 C 563,1613 560,1612 557,1611 C 555,1610 552,1610 549,1608 C 547,1608 544,1606 541,1605 C 539,1604 536,1604 533,1602 C 531,1601 528,1600 525,1598 C 523,1597 520,1595 517,1594 C 515,1592 512,1590 509,1587 C 507,1586 504,1583 501,1580 C 499,1578 496,1575 494,1572 C 492,1570 490,1568 488,1565 C 486,1563 484,1560 482,1557 C 480,1555 478,1552 476,1549 C 475,1547 473,1544 470,1541 C 469,1539 467,1536 466,1533 C 465,1531 463,1528 462,1525 C 461,1523 459,1520 458,1517 C 457,1515 456,1512 455,1509 C 454,1507 453,1504 452,1501 C 451,1499 450,1496 450,1493 C 449,1491 448,1488 447,1485 C 447,1483 446,1480 446,1477 C 445,1475 445,1472 444,1469 C 444,1467 443,1464 443,1461 C 443,1459 442,1456 442,1453 C 442,1451 442,1448 442,1445 C 442,1443 442,1440 442,1437 C 442,1435 442,1432 442,1429 C 442,1427 442,1424 442,1421 C 442,1419 442,1416 443,1413 C 443,1411 443,1408 443,1405 C 444,1403 444,1400 445,1397 C 445,1395 445,1392 446,1389 C 446,1387 447,1384 448,1381 C 448,1379 449,1376 449,1373 C 450,1371 451,1368 451,1365 C 452,1363 453,1360 453,1357 C 454,1355 455,1352 456,1349 C 457,1347 458,1344 459,1341 C 460,1339 461,1336 462,1333 C 463,1331 464,1328 466,1325 C 467,1323 468,1320 469,1317 C 470,1315 471,1312 473,1309 C 473,1307 475,1304 476,1301 C 477,1299 478,1296 479,1293 C 480,1291 482,1288 483,1285 C 484,1283 485,1280 486,1277 C 487,1275 488,1272 490,1269 C 491,1267 492,1264 493,1261 C 494,1259 495,1256 496,1253 C 497,1251 498,1248 500,1245 C 501,1243 502,1240 503,1237 C 504,1235 505,1232 506,1229 C 507,1227 508,1224 510,1221 C 511,1219 512,1216 513,1213 C 514,1211 515,1208 517,1205 C 517,1203 519,1200 520,1197 C 521,1195 522,1192 523,1189 C 524,1187 526,1184 527,1181 C 528,1179 529,1176 530,1173 C 531,1171 533,1168 534,1165 C 535,1163 536,1160 537,1157 C 538,1155 540,1152 541,1149 C 542,1147 543,1144 544,1141 C 545,1139 546,1136 548,1133 C 549,1131 550,1128 551,1125 C 552,1123 553,1120 554,1117 C 555,1115 556,1112 558,1109 C 559,1107 560,1104 561,1101 C 562,1099 563,1096 565,1093 C 565,1091 567,1088 568,1085 C 569,1083 570,1080 572,1077 C 573,1075 574,1072 575,1069 C 576,1067 577,1064 578,1061 C 579,1059 581,1056 582,1053 C 583,1051 584,1048 585,1045 C 586,1043 587,1040 589,1037 C 590,1035 591,1032 592,1029 C 593,1027 594,1024 596,1021 C 597,1019 598,1016 599,1013 C 600,1011 601,1008 603,1005 C 603,1003 605,1000 606,997 C 607,995 608,992 609,989 C 610,987 611,984 613,981 C 614,979 615,976 616,973 C 617,971 618,968 620,965 C 621,963 622,960 623,957 C 624,955 625,952 627,949 C 627,947 629,944 630,941 C 631,939 632,936 633,933 C 634,931 636,928 637,925 C 638,923 639,920 640,917 C 641,915 643,912 644,909 C 645,907 646,904 647,901 C 648,899 649,896 651,893 C 652,891 653,888 654,885 C 655,883 656,880 658,877 C 659,875 660,872 661,869 C 662,867 664,864 665,861 C 666,859 667,856 669,853 C 670,851 671,848 672,845 C 673,843 675,840 676,837 C 677,835 678,832 680,829 C 681,827 682,824 683,821 C 684,819 685,816 687,813 C 688,811 689,808 690,805 C 691,803 692,800 693,797 C 694,795 695,792 697,789 C 697,787 699,784 700,781 C 701,779 703,776 704,773 C 705,771 706,768 707,765 C 708,763 710,760 711,757 C 712,755 713,752 715,749 C 716,747 717,744 718,741 C 719,739 720,736 722,733 C 723,731 724,728 725,725 C 726,723 728,720 729,717 C 730,715 731,712 732,709 C 733,707 735,704 736,701 C 737,699 738,696 739,693 C 740,691 741,688 743,685 C 744,683 745,680 747,677 C 747,675 748,672 750,669 C 751,667 752,664 753,661 C 754,659 756,656 757,653 C 758,651 759,648 760,645 C 761,643 763,640 764,637 C 765,635 766,632 767,629 C 768,627 769,624 771,621 C 772,619 773,616 775,613 C 775,611 777,608 778,605 C 779,603 780,600 781,597 C 782,595 783,592 785,589 C 785,587 787,584 788,581 C 789,579 790,576 791,573 C 792,571 794,568 795,565 C 796,563 797,560 798,557 C 799,555 801,552 802,549 C 803,547 804,544 805,541 C 806,539 807,536 809,533 C 809,531 811,528 812,525 C 813,523 814,520 816,517 C 816,515 818,512 819,509 C 820,507 821,504 822,501 C 823,499 825,496 826,493 C 827,491 828,488 829,485 C 830,483 831,480 833,477 C 834,475 835,472 836,469 C 837,467 838,464 839,461 C 840,459 842,456 843,453 C 844,451 845,448 847,445 C 848,443 849,440 851,437 C 852,435 854,432 855,429 C 857,427 859,424 861,421 C 863,419 865,416 867,414 C 869,412 872,409 875,406 C 877,404 880,402 883,399 C 885,398 888,395 891,393 C 893,392 896,390 899,388 C 901,387 904,386 907,384 C 909,383 912,382 915,381 C 917,380 920,379 923,378 C 925,378 928,377 931,376 C 933,376 936,376 939,376 C 941,376 944,375 947,376 Z M 1032,40 C 1030,41 1027,41 1024,41 C 1022,41 1019,41 1016,42 C 1014,42 1011,43 1008,43 C 1006,43 1003,44 1000,44 C 998,44 995,45 992,46 C 990,46 987,47 984,47 C 982,48 979,48 976,49 C 974,49 971,51 968,51 C 966,52 963,53 960,53 C 958,54 955,55 952,56 C 950,57 947,58 944,60 C 942,60 939,62 936,63 C 934,64 931,66 928,67 C 926,68 923,69 920,71 C 918,72 915,74 912,75 C 910,76 907,78 904,80 C 902,81 899,83 896,85 C 894,86 891,88 888,90 C 886,92 883,94 880,96 C 878,97 875,100 872,102 C 870,103 867,106 864,108 C 862,110 859,112 856,115 C 854,116 851,119 848,121 C 846,123 843,125 840,128 C 838,129 835,132 832,134 C 830,136 827,139 824,142 C 822,143 819,146 816,149 C 814,151 811,154 809,157 C 807,159 804,162 801,165 C 799,167 797,169 795,172 C 793,174 790,177 788,180 C 786,182 784,185 781,188 C 780,190 778,193 776,196 C 774,198 772,201 769,204 C 768,206 766,209 764,212 C 762,214 760,217 758,220 C 757,222 755,225 753,228 C 751,230 749,233 747,236 C 746,238 744,241 742,244 C 741,246 740,249 738,252 C 737,254 735,257 733,260 C 732,262 731,265 729,268 C 728,270 726,273 725,276 C 724,278 723,281 721,284 C 720,286 719,289 717,292 C 716,294 715,297 713,300 C 712,302 711,305 709,308 C 709,310 707,313 705,316 C 704,318 702,321 701,324 C 700,326 698,329 697,332 C 696,334 695,337 693,340 C 692,342 691,345 690,348 C 689,350 687,353 686,356 C 685,358 684,361 682,364 C 682,366 680,369 679,372 C 678,374 677,377 675,380 C 674,382 673,385 672,388 C 671,390 670,393 668,396 C 668,398 667,401 665,404 C 664,406 663,409 662,412 C 661,414 659,417 659,420 C 658,422 656,425 655,428 C 654,430 653,433 652,436 C 651,438 650,441 648,444 C 647,446 646,449 645,452 C 644,454 643,457 642,460 C 641,462 639,465 638,468 C 637,470 636,473 635,476 C 634,478 633,481 631,484 C 630,486 629,489 628,492 C 627,494 626,497 624,500 C 624,502 622,505 621,508 C 621,510 619,513 618,516 C 617,518 616,521 615,524 C 614,526 613,529 611,532 C 610,534 609,537 608,540 C 607,542 606,545 604,548 C 603,550 602,553 601,556 C 600,558 599,561 597,564 C 596,566 595,569 594,572 C 593,574 592,577 590,580 C 589,582 588,585 587,588 C 586,590 585,593 583,596 C 582,598 581,601 580,604 C 579,606 578,609 576,612 C 576,614 574,617 573,620 C 572,622 571,625 569,628 C 568,630 567,633 566,636 C 565,638 564,641 562,644 C 561,646 560,649 559,652 C 558,654 556,657 555,660 C 554,662 553,665 551,668 C 551,670 549,673 548,676 C 547,678 546,681 544,684 C 544,686 542,689 541,692 C 540,694 539,697 537,700 C 536,702 535,705 534,708 C 533,710 532,713 530,716 C 530,718 528,721 527,724 C 526,726 525,729 523,732 C 523,734 521,737 520,740 C 519,742 518,745 516,748 C 516,750 514,753 513,756 C 512,758 511,761 510,764 C 509,766 508,769 506,772 C 506,774 504,777 503,780 C 502,782 501,785 499,788 C 499,790 497,793 496,796 C 495,798 494,801 492,804 C 492,806 490,809 489,812 C 488,814 487,817 485,820 C 484,822 483,825 482,828 C 481,830 480,833 478,836 C 477,837 476,840 476,843 C 474,845 472,847 471,850 C 470,852 469,855 468,858 C 467,860 465,863 464,866 C 463,868 462,871 460,874 C 460,876 458,879 457,882 C 456,884 455,887 454,890 C 453,892 452,895 450,898 C 449,900 448,903 447,906 C 446,908 444,911 443,914 C 442,916 441,919 439,922 C 439,924 437,927 436,930 C 435,932 433,935 432,938 C 431,940 429,943 428,946 C 427,948 426,951 425,954 C 424,956 422,959 421,962 C 420,964 419,967 418,970 C 417,972 416,975 414,978 C 413,980 412,983 411,986 C 410,988 409,991 407,994 C 406,996 405,999 404,1002 C 403,1004 402,1007 401,1010 C 400,1012 398,1015 397,1018 C 396,1020 395,1023 394,1026 C 393,1028 392,1031 390,1034 C 389,1036 388,1039 387,1042 C 386,1044 384,1047 383,1050 C 382,1052 381,1055 379,1058 C 378,1060 377,1063 376,1066 C 375,1068 374,1071 372,1074 C 371,1076 370,1079 369,1082 C 368,1084 367,1087 365,1090 C 365,1092 363,1095 362,1098 C 361,1100 360,1103 359,1106 C 358,1108 357,1111 355,1114 C 355,1116 353,1119 352,1122 C 351,1124 350,1127 349,1130 C 348,1132 347,1135 346,1138 C 345,1140 344,1143 343,1146 C 342,1148 341,1151 339,1154 C 339,1156 337,1159 336,1162 C 335,1164 333,1167 332,1170 C 332,1172 330,1175 329,1178 C 328,1180 327,1183 325,1186 C 325,1188 324,1191 322,1194 C 321,1196 320,1199 319,1202 C 318,1204 317,1207 315,1210 C 315,1212 313,1215 312,1218 C 311,1220 310,1223 309,1226 C 308,1228 307,1231 305,1234 C 304,1236 303,1239 302,1242 C 301,1244 300,1247 299,1250 C 298,1252 296,1255 295,1258 C 294,1260 293,1263 292,1266 C 291,1268 290,1271 288,1274 C 288,1276 286,1279 285,1282 C 284,1284 283,1287 281,1290 C 280,1292 279,1295 278,1298 C 277,1300 276,1303 275,1306 C 274,1308 272,1311 271,1314 C 270,1316 269,1319 268,1322 C 267,1324 266,1327 264,1330 C 264,1332 262,1335 261,1338 C 260,1340 259,1343 258,1346 C 257,1348 256,1351 254,1354 C 253,1356 252,1359 251,1362 C 250,1364 249,1367 248,1370 C 246,1372 245,1375 244,1378 C 243,1380 242,1383 240,1386 C 240,1388 238,1391 237,1394 C 236,1396 235,1399 233,1402 C 232,1404 231,1407 230,1410 C 229,1412 228,1415 227,1418 C 226,1420 224,1423 223,1426 C 222,1428 221,1431 220,1434 C 219,1436 218,1439 216,1442 C 215,1444 214,1447 213,1450 C 212,1452 211,1455 210,1458 C 209,1460 208,1463 207,1466 C 206,1468 205,1471 204,1474 C 203,1476 202,1479 200,1482 C 200,1484 199,1487 197,1490 C 196,1492 195,1495 194,1498 C 193,1500 192,1503 191,1506 C 190,1508 189,1511 188,1514 C 188,1516 187,1519 186,1522 C 185,1524 184,1527 183,1530 C 182,1532 181,1535 180,1538 C 180,1540 179,1543 178,1546 C 177,1548 176,1551 176,1554 C 175,1556 174,1559 173,1562 C 173,1564 172,1567 171,1570 C 171,1572 170,1575 169,1578 C 168,1580 168,1583 167,1586 C 166,1588 166,1591 165,1594 C 164,1596 164,1599 163,1602 C 163,1604 162,1607 161,1610 C 161,1612 161,1615 160,1618 C 160,1620 159,1623 159,1626 C 158,1628 158,1631 158,1634 C 157,1636 157,1639 156,1642 C 156,1644 156,1647 155,1650 C 155,1652 155,1655 155,1658 C 154,1660 154,1663 154,1666 C 154,1668 154,1671 154,1674 C 154,1676 153,1679 153,1682 C 153,1684 153,1687 153,1690 C 153,1692 153,1695 153,1698 C 153,1700 153,1703 153,1706 C 153,1708 153,1711 153,1714 C 153,1716 153,1719 153,1722 C 153,1724 153,1727 153,1730 C 154,1732 154,1735 154,1738 C 154,1740 154,1743 154,1746 C 154,1748 155,1751 155,1754 C 155,1756 156,1759 156,1762 C 156,1764 157,1767 158,1770 C 158,1772 159,1775 160,1778 C 160,1780 161,1783 162,1786 C 162,1788 163,1791 164,1794 C 165,1796 166,1799 167,1802 C 168,1804 169,1807 170,1810 C 171,1812 172,1815 173,1818 C 174,1820 175,1823 177,1826 C 178,1828 179,1831 181,1834 C 182,1836 183,1839 185,1842 C 186,1844 188,1847 190,1850 C 191,1852 193,1855 195,1858 C 196,1860 198,1863 201,1866 C 202,1868 205,1871 207,1874 C 209,1876 211,1878 213,1881 C 215,1883 218,1886 220,1889 C 222,1891 225,1894 228,1897 C 230,1899 233,1901 236,1904 C 238,1906 241,1908 244,1911 C 246,1913 249,1915 252,1917 C 254,1919 257,1921 260,1923 C 262,1924 265,1926 268,1928 C 270,1930 273,1932 276,1933 C 278,1935 281,1936 284,1938 C 286,1939 289,1941 292,1942 C 294,1943 297,1945 300,1946 C 302,1947 305,1948 308,1949 C 310,1950 313,1951 316,1953 C 318,1953 321,1954 324,1955 C 326,1956 329,1957 332,1958 C 334,1958 337,1959 340,1960 C 342,1960 345,1961 348,1962 C 350,1962 353,1963 356,1963 C 358,1963 361,1964 364,1964 C 366,1964 369,1965 372,1965 C 374,1965 377,1966 380,1966 C 382,1966 385,1966 388,1967 C 390,1967 393,1967 396,1967 C 398,1967 401,1968 404,1968 C 406,1968 409,1968 412,1968 C 414,1968 417,1968 420,1968 C 422,1968 425,1967 428,1967 C 430,1967 433,1967 436,1967 C 438,1966 441,1966 444,1966 C 446,1965 449,1965 452,1965 C 454,1964 457,1964 460,1964 C 462,1963 465,1963 468,1962 C 470,1962 473,1961 476,1961 C 478,1960 481,1960 484,1959 C 486,1959 489,1958 492,1957 C 494,1957 497,1956 500,1955 C 502,1955 505,1954 508,1953 C 510,1953 513,1952 516,1951 C 518,1950 521,1949 524,1949 C 526,1948 529,1947 532,1946 C 534,1945 537,1944 540,1943 C 542,1942 545,1941 548,1940 C 550,1939 553,1938 556,1937 C 558,1936 561,1935 564,1934 C 566,1933 569,1931 572,1930 C 574,1929 577,1928 580,1926 C 582,1925 585,1924 588,1922 C 590,1921 593,1920 596,1918 C 598,1917 601,1916 604,1914 C 606,1913 609,1912 612,1910 C 614,1909 617,1907 620,1906 C 622,1905 625,1903 628,1901 C 630,1900 633,1898 636,1897 C 638,1895 641,1893 644,1892 C 646,1890 649,1889 652,1887 C 654,1885 657,1883 660,1881 C 662,1880 665,1878 668,1876 C 670,1875 673,1873 676,1870 C 678,1869 681,1867 684,1865 C 686,1864 689,1862 692,1860 C 694,1859 697,1857 700,1854 C 702,1853 705,1851 708,1849 C 710,1848 713,1845 716,1843 C 718,1842 720,1839 723,1837 C 725,1836 728,1834 731,1831 C 733,1829 736,1827 739,1825 C 740,1823 743,1821 746,1818 C 748,1816 751,1814 754,1812 C 756,1810 759,1807 762,1804 C 764,1802 767,1799 770,1796 C 772,1795 775,1792 778,1790 C 780,1788 783,1786 786,1784 C 787,1782 790,1780 793,1777 C 795,1776 798,1773 801,1771 C 803,1770 806,1767 809,1765 C 811,1763 814,1761 817,1758 C 819,1757 822,1754 825,1752 C 827,1750 830,1748 833,1745 C 835,1743 838,1740 841,1738 C 843,1736 846,1734 849,1732 C 851,1730 854,1727 857,1725 C 859,1723 862,1720 865,1718 C 867,1716 870,1714 873,1712 C 875,1710 878,1708 881,1705 C 883,1703 886,1701 889,1698 C 891,1697 894,1694 897,1692 C 899,1690 902,1688 905,1685 C 907,1683 910,1681 913,1678 C 915,1677 918,1674 921,1672 C 923,1671 926,1668 929,1665 C 931,1664 933,1661 935,1659 C 937,1658 940,1655 943,1653 C 945,1652 947,1650 950,1648 C 952,1646 955,1643 958,1641 C 960,1640 963,1638 966,1635 C 968,1634 971,1632 974,1629 C 976,1627 979,1625 982,1622 C 984,1621 987,1619 989,1616 C 991,1615 993,1612 995,1610 C 997,1608 999,1606 1002,1603 C 1004,1602 1007,1599 1010,1597 C 1011,1596 1013,1594 1016,1592 C 1017,1590 1020,1588 1023,1586 C 1024,1584 1027,1582 1030,1579 C 1032,1578 1035,1575 1038,1573 C 1040,1571 1043,1568 1046,1565 C 1048,1564 1051,1561 1054,1559 C 1056,1557 1059,1555 1062,1552 C 1064,1551 1067,1548 1070,1546 C 1072,1544 1075,1542 1078,1540 C 1080,1538 1083,1536 1086,1533 C 1088,1531 1091,1528 1094,1526 C 1096,1524 1099,1522 1102,1520 C 1104,1518 1107,1516 1110,1513 C 1112,1511 1115,1509 1118,1506 C 1120,1504 1123,1502 1126,1499 C 1128,1498 1131,1495 1134,1493 C 1136,1491 1139,1488 1142,1486 C 1144,1484 1147,1482 1150,1480 C 1152,1478 1155,1476 1158,1473 C 1160,1471 1163,1469 1166,1466 C 1168,1465 1171,1462 1174,1460 C 1176,1458 1179,1455 1182,1453 C 1184,1451 1187,1449 1190,1446 C 1192,1444 1195,1442 1198,1440 C 1200,1438 1203,1436 1206,1433 C 1208,1431 1211,1429 1214,1426 C 1216,1424 1219,1422 1222,1420 C 1224,1418 1227,1415 1230,1413 C 1232,1411 1235,1409 1238,1406 C 1240,1405 1243,1402 1246,1400 C 1248,1398 1251,1396 1254,1393 C 1256,1391 1259,1389 1262,1387 C 1264,1385 1267,1383 1270,1381 C 1272,1379 1275,1376 1278,1374 C 1280,1372 1283,1370 1286,1368 C 1288,1366 1291,1364 1294,1362 C 1296,1360 1299,1357 1302,1355 C 1304,1353 1307,1351 1310,1349 C 1312,1347 1315,1345 1318,1342 C 1320,1340 1323,1338 1326,1335 C 1328,1334 1331,1331 1334,1329 C 1336,1327 1339,1325 1342,1322 C 1344,1321 1347,1318 1350,1316 C 1352,1314 1355,1312 1358,1309 C 1360,1308 1363,1305 1366,1303 C 1368,1301 1371,1299 1374,1297 C 1376,1295 1379,1293 1382,1291 C 1384,1290 1387,1288 1390,1286 C 1392,1284 1395,1282 1398,1280 C 1400,1279 1403,1277 1406,1275 C 1408,1273 1411,1271 1414,1269 C 1416,1268 1419,1266 1422,1265 C 1424,1264 1427,1262 1430,1260 C 1432,1259 1435,1257 1438,1256 C 1440,1255 1443,1253 1446,1252 C 1448,1251 1451,1249 1454,1248 C 1456,1247 1459,1245 1462,1244 C 1464,1243 1467,1242 1470,1241 C 1472,1240 1475,1238 1478,1237 C 1480,1236 1483,1235 1486,1234 C 1488,1234 1491,1233 1494,1231 C 1496,1231 1499,1230 1502,1229 C 1504,1228 1507,1228 1510,1227 C 1512,1226 1515,1225 1518,1224 C 1520,1224 1523,1223 1526,1222 C 1528,1221 1531,1221 1534,1220 C 1536,1220 1539,1219 1542,1218 C 1544,1218 1547,1217 1550,1217 C 1552,1217 1555,1216 1558,1216 C 1560,1215 1563,1215 1566,1214 C 1568,1214 1571,1214 1574,1213 C 1576,1213 1579,1213 1582,1213 C 1584,1213 1587,1212 1590,1212 C 1592,1212 1595,1212 1598,1212 C 1600,1212 1603,1212 1606,1212 C 1608,1212 1611,1212 1614,1212 C 1616,1212 1619,1212 1622,1212 C 1624,1212 1627,1212 1630,1212 C 1632,1212 1635,1212 1638,1213 C 1640,1213 1643,1213 1646,1213 C 1648,1213 1651,1214 1654,1214 C 1656,1214 1659,1215 1662,1215 C 1664,1215 1667,1216 1670,1216 C 1672,1217 1675,1217 1678,1218 C 1680,1218 1683,1218 1686,1219 C 1688,1220 1691,1220 1694,1221 C 1696,1221 1699,1222 1702,1223 C 1704,1223 1707,1224 1710,1224 C 1712,1225 1715,1226 1718,1226 C 1720,1227 1723,1228 1726,1229 C 1728,1229 1731,1230 1734,1231 C 1736,1232 1739,1233 1742,1233 C 1744,1234 1747,1235 1750,1236 C 1752,1237 1755,1238 1758,1239 C 1760,1240 1763,1241 1766,1242 C 1768,1242 1771,1243 1774,1244 C 1776,1245 1779,1247 1782,1248 C 1784,1249 1787,1251 1790,1252 C 1792,1253 1795,1251 1795,1248 C 1794,1246 1793,1243 1791,1240 C 1791,1238 1789,1235 1788,1232 C 1787,1230 1786,1227 1785,1224 C 1784,1222 1783,1219 1782,1216 C 1781,1214 1779,1211 1778,1208 C 1777,1206 1776,1203 1774,1200 C 1773,1198 1772,1195 1770,1192 C 1769,1190 1768,1187 1767,1184 C 1766,1182 1764,1179 1763,1176 C 1762,1174 1761,1171 1760,1168 C 1759,1166 1758,1163 1756,1160 C 1756,1158 1754,1155 1753,1152 C 1752,1150 1750,1147 1749,1144 C 1748,1142 1747,1139 1746,1136 C 1745,1134 1743,1131 1742,1128 C 1741,1126 1740,1123 1738,1120 C 1738,1118 1736,1115 1735,1112 C 1734,1110 1733,1107 1731,1104 C 1731,1102 1729,1099 1728,1096 C 1727,1094 1726,1091 1725,1088 C 1724,1086 1722,1083 1721,1080 C 1721,1078 1719,1075 1718,1072 C 1717,1070 1716,1067 1715,1064 C 1714,1062 1713,1059 1711,1056 C 1710,1054 1709,1051 1708,1048 C 1707,1046 1705,1043 1705,1040 C 1704,1038 1702,1035 1701,1032 C 1700,1030 1699,1027 1698,1024 C 1697,1022 1695,1019 1694,1016 C 1693,1014 1692,1011 1690,1008 C 1690,1006 1689,1003 1687,1000 C 1686,998 1685,995 1684,992 C 1683,990 1682,987 1681,984 C 1680,982 1678,979 1677,976 C 1676,974 1675,971 1673,968 C 1673,966 1671,963 1669,960 C 1669,958 1668,955 1666,952 C 1665,950 1664,947 1662,944 C 1661,942 1660,939 1659,936 C 1658,934 1657,931 1655,928 C 1655,926 1653,923 1652,920 C 1651,918 1649,915 1648,912 C 1647,910 1645,907 1644,904 C 1643,902 1642,899 1641,896 C 1640,894 1638,891 1637,888 C 1636,886 1635,883 1633,880 C 1632,878 1631,875 1630,872 C 1629,870 1628,867 1626,864 C 1626,862 1625,859 1623,856 C 1622,854 1621,851 1620,848 C 1618,846 1617,843 1616,840 C 1615,838 1613,835 1612,832 C 1611,830 1610,827 1608,824 C 1607,822 1606,819 1605,816 C 1604,814 1603,811 1601,808 C 1600,806 1599,803 1597,800 C 1597,798 1595,795 1594,792 C 1593,790 1592,787 1591,784 C 1590,782 1589,779 1587,776 C 1587,774 1585,771 1584,768 C 1583,766 1582,763 1581,760 C 1580,758 1579,755 1577,752 C 1577,750 1576,747 1574,744 C 1573,742 1572,739 1571,736 C 1570,734 1569,731 1567,728 C 1566,726 1565,723 1564,720 C 1562,718 1561,715 1559,712 C 1558,710 1557,707 1556,704 C 1555,702 1554,699 1552,696 C 1552,694 1550,691 1549,688 C 1548,686 1547,683 1545,680 C 1544,678 1543,675 1541,672 C 1541,670 1539,667 1538,664 C 1537,662 1536,659 1534,656 C 1534,654 1532,651 1531,648 C 1530,646 1529,643 1527,640 C 1527,638 1525,635 1524,632 C 1523,630 1522,627 1520,624 C 1519,622 1518,619 1517,616 C 1516,614 1515,611 1513,608 C 1513,606 1511,603 1510,600 C 1509,598 1508,595 1506,592 C 1506,590 1504,587 1503,584 C 1502,582 1501,579 1499,576 C 1499,574 1497,571 1496,568 C 1495,566 1494,563 1493,560 C 1492,558 1490,555 1489,552 C 1488,550 1487,547 1486,544 C 1485,542 1484,539 1483,536 C 1482,534 1480,531 1479,528 C 1478,526 1477,523 1476,520 C 1475,518 1474,515 1472,512 C 1472,510 1470,507 1469,504 C 1468,502 1467,499 1465,496 C 1464,494 1463,491 1462,488 C 1461,486 1459,483 1458,480 C 1457,478 1456,475 1454,472 C 1454,470 1452,467 1451,464 C 1450,462 1449,459 1447,456 C 1446,454 1445,451 1444,448 C 1443,446 1442,443 1441,440 C 1440,438 1438,435 1437,432 C 1436,430 1435,427 1434,424 C 1433,422 1432,419 1430,416 C 1429,414 1428,411 1427,408 C 1426,406 1425,403 1423,400 C 1423,398 1421,395 1420,392 C 1419,390 1418,387 1416,384 C 1415,382 1414,379 1413,376 C 1412,374 1411,371 1409,368 C 1408,366 1407,363 1405,360 C 1405,358 1403,355 1402,352 C 1401,350 1400,347 1399,344 C 1398,342 1397,339 1395,336 C 1394,334 1393,331 1392,328 C 1391,326 1390,323 1389,320 C 1388,318 1387,315 1385,312 C 1384,310 1383,307 1382,304 C 1381,302 1380,299 1378,296 C 1377,294 1376,291 1374,288 C 1373,286 1372,283 1370,280 C 1369,278 1368,275 1366,272 C 1365,270 1364,267 1362,264 C 1361,262 1360,259 1358,256 C 1357,254 1355,251 1354,248 C 1353,246 1351,243 1349,240 C 1348,238 1346,235 1344,232 C 1343,230 1341,227 1339,224 C 1338,222 1336,219 1334,216 C 1333,214 1330,211 1328,208 C 1327,206 1325,203 1322,200 C 1321,198 1318,195 1316,192 C 1314,190 1312,187 1310,184 C 1308,182 1305,179 1303,176 C 1301,174 1298,171 1296,168 C 1294,166 1291,163 1288,160 C 1287,158 1284,155 1281,152 C 1279,150 1276,147 1273,144 C 1271,143 1269,140 1266,138 C 1264,136 1261,133 1258,130 C 1256,128 1253,126 1250,123 C 1248,121 1245,119 1242,116 C 1240,115 1237,112 1234,110 C 1232,108 1229,106 1226,104 C 1224,102 1221,100 1218,98 C 1216,97 1213,95 1210,93 C 1208,92 1205,89 1202,88 C 1200,87 1197,85 1194,83 C 1192,82 1189,80 1186,79 C 1184,78 1181,76 1178,74 C 1176,73 1173,72 1170,70 C 1168,69 1165,68 1162,67 C 1160,66 1157,64 1154,63 C 1152,62 1149,61 1146,60 C 1144,59 1141,58 1138,56 C 1136,56 1133,55 1130,54 C 1128,53 1125,52 1122,51 C 1120,51 1117,50 1114,49 C 1112,49 1109,48 1106,47 C 1104,47 1101,46 1098,46 C 1096,45 1093,45 1090,44 C 1088,44 1085,43 1082,43 C 1080,42 1077,42 1074,42 C 1072,42 1069,41 1066,41 C 1064,41 1061,41 1058,40 C 1056,40 1053,40 1050,40 C 1048,40 1045,40 1042,40 C 1040,40 1037,40 1034,40 C 1032,40 1029,41 1026,41 Z" fill="white" fill-rule="evenodd" stroke="none" /></svg>